<svg width="16" height="16" viewBox="0 0 16 16" xmlns="http://www.w3.org/2000/svg"><title>4E9AE3D0-D5AF-4EF0-A60F-60EB28C5F75A</title><g fill="none" fill-rule="evenodd"><path d="M-8-8h32v32H-8z"/><path d="M10.202 11.003l4.832 4.831c.11.11.248.166.4.166a.567.567 0 0 0 .4-.966l-4.831-4.832a6.216 6.216 0 0 0 1.45-3.976A6.227 6.227 0 0 0 6.225 0C2.802 0 0 2.802 0 6.226c0 3.438 2.802 6.226 6.226 6.226 1.519 0 2.9-.538 3.976-1.45zM6.226 1.132a5.1 5.1 0 0 1 5.094 5.094 5.09 5.09 0 0 1-5.094 5.094 5.1 5.1 0 0 1-5.094-5.094 5.108 5.108 0 0 1 5.094-5.094z" fill="#FFF"/></g></svg>