<svg width="122" height="18" viewBox="0 0 122 18" xmlns="http://www.w3.org/2000/svg" xmlns:xlink="http://www.w3.org/1999/xlink"><title>1617CACB-C587-446E-8B00-E6AC6DB5856C</title><defs><path id="a" d="M7.463.729H.308v12.914h7.155V.73z"/></defs><g fill="none" fill-rule="evenodd"><path d="M15.243 9.432c0-1.295-.847-2.048-1.942-2.048-1.484 0-2.686 1.418-2.686 3.185 0 1.313.848 2.065 1.943 2.065 1.484 0 2.685-1.434 2.685-3.202M9.06 10.569c0-2.31 1.82-4.48 4.31-4.48 2.192 0 3.428 1.558 3.428 3.36 0 2.293-1.82 4.463-4.31 4.463-2.19 0-3.428-1.557-3.428-3.343M21.425 6.23l-1.165 4.568a3.678 3.678 0 0 0-.107.752c0 .664.407 1.067 1.06 1.067 1.007 0 1.855-.805 2.244-2.293l1.024-4.094h1.555l-1.36 5.337c-.071.315-.124.595-.124.77 0 .333.16.525.441.525.301 0 .636-.262 1.007-1.224l.69.244c-.46 1.505-1.273 2.012-2.103 2.012-.901 0-1.466-.612-1.466-1.557v-.158c-.618 1.033-1.554 1.733-2.58 1.733-1.077 0-1.977-.77-1.977-1.995 0-.385.07-.822.176-1.26l.813-3.132H18.14l.335-1.295h2.95zM27.801 6.475c1.626-.928 2.174-1.768 2.245-2.136-.496-.227-.76-.699-.76-1.067 0-.682.548-1.26 1.254-1.26.688 0 1.272.543 1.272 1.383 0 1.294-1.52 2.887-3.692 3.727l-.319-.647zM33.348 7.525h-1.414l.336-1.295h2.72l-.494 2.117c.936-1.487 1.82-2.24 2.65-2.24.618 0 1.13.437 1.13 1.05 0 .595-.495 1.067-1.06 1.067-.53 0-.936-.35-1.024-.77-.548.246-1.625 1.314-2.032 2.94l-.848 3.378h-1.555l1.59-6.247zM40.148 9.38h3.957a2.06 2.06 0 0 0 .106-.648c0-.787-.53-1.365-1.626-1.365-1.094 0-2.03.823-2.437 2.013zm-.212 1.102v.262c0 1.138.918 1.89 2.296 1.89.814 0 1.555-.175 2.51-.682l-.302 1.435c-.794.385-1.448.525-2.525.525-1.82 0-3.498-1.137-3.498-3.202 0-2.555 1.907-4.62 4.168-4.62 1.855 0 3.074 1.05 3.074 2.817 0 .473-.088.997-.282 1.575h-5.441zM53.041 2.257h-1.43l.335-1.295h2.916L53.272 7.7c.546-.84 1.447-1.593 2.455-1.593 1.165 0 2.102.788 2.102 2.135 0 .367-.053.787-.194 1.225l-.619 2.24a3.036 3.036 0 0 0-.088.595c0 .35.176.56.459.56.319 0 .636-.263.99-1.225l.688.245c-.406 1.365-1.113 2.013-2.067 2.013-1.042 0-1.625-.63-1.625-1.506 0-.245.054-.56.124-.84l.636-2.292c.088-.297.105-.525.105-.77 0-.664-.476-1.102-1.164-1.102-.936 0-1.856.77-2.21 2.328l-.954 4.059h-1.554l2.685-11.515zM66.254 9.432c0-1.295-.848-2.048-1.943-2.048-1.484 0-2.686 1.418-2.686 3.185 0 1.313.849 2.065 1.943 2.065 1.484 0 2.686-1.434 2.686-3.202m-6.183 1.137c0-2.31 1.82-4.48 4.31-4.48 2.19 0 3.428 1.558 3.428 3.36 0 2.293-1.82 4.463-4.31 4.463-2.192 0-3.428-1.557-3.428-3.343M75.58 9.344c0-1.137-.619-1.942-1.713-1.942-1.502 0-2.774 1.645-2.774 3.325 0 1.102.653 1.838 1.837 1.838 1.502 0 2.65-1.558 2.65-3.22zm-4.01-7.087h-1.43l.335-1.295h2.915l-1.573 6.685c.583-.84 1.538-1.557 2.561-1.557 1.767 0 2.792 1.225 2.792 3.044 0 2.626-1.838 4.778-4.046 4.778-1.13 0-2.084-.717-2.331-1.732l-.459 1.592h-1.448L71.57 2.257zM84.977 9.344c0-1.137-.619-1.942-1.713-1.942-1.502 0-2.775 1.645-2.775 3.325 0 1.102.654 1.838 1.838 1.838 1.502 0 2.65-1.558 2.65-3.22zm-4.01-7.087h-1.432l.337-1.295h2.914l-1.572 6.685c.582-.84 1.537-1.557 2.561-1.557 1.767 0 2.791 1.225 2.791 3.044 0 2.626-1.837 4.778-4.045 4.778-1.13 0-2.084-.717-2.332-1.732l-.46 1.592h-1.447l2.684-11.515zM85.4 16.17c0-.56.423-.98.954-.98.441 0 .812.297.918.752.424-.018 1.183-.63 2.72-2.467l-1.236-5.95h-1.342l.335-1.295h2.331l1.026 6.02c1.2-1.576 2.279-3.045 2.56-4.13-.388-.14-.742-.49-.742-1.016 0-.541.443-1.015 1.043-1.015.724 0 1.185.526 1.185 1.366 0 1.015-.69 2.572-3.517 6.037-2.685 3.272-3.763 3.78-4.911 3.78-.777 0-1.325-.508-1.325-1.103" fill="#A1A4A8"/><g transform="translate(96.043 .129)"><mask id="b" fill="#fff"><use xlink:href="#a"/></mask><path d="M1.757 7.396H.432L.75 6.1h1.308l.494-2.082c.266-1.156.671-1.891 1.219-2.433.583-.578 1.377-.858 2.173-.858 1.007 0 1.519.543 1.519 1.137 0 .596-.477.981-.99.981-.512 0-.918-.333-.97-.806a1.33 1.33 0 0 0-.637.35c-.353.35-.618.928-.83 1.785l-.441 1.926H5.59l-.336 1.295H3.293l-1.447 6.247H.308l1.449-6.247z" fill="#A1A4A8" mask="url(#b)"/></g><path d="M105.412 6.23l-1.166 4.568a3.676 3.676 0 0 0-.106.752c0 .664.406 1.067 1.06 1.067 1.008 0 1.855-.805 2.244-2.293l1.024-4.094h1.554l-1.359 5.337c-.07.315-.124.595-.124.77 0 .333.159.525.442.525.3 0 .636-.262 1.007-1.224l.689.244c-.46 1.505-1.272 2.012-2.103 2.012-.9 0-1.466-.612-1.466-1.557v-.158c-.618 1.033-1.555 1.733-2.579 1.733-1.078 0-1.979-.77-1.979-1.995 0-.385.071-.822.177-1.26l.813-3.132h-1.414l.336-1.295h2.95zM111.983 12.355c0-.228.053-.508.105-.787l2.19-9.31h-1.43l.336-1.296h2.932l-2.473 10.588c-.07.297-.123.577-.123.752 0 .368.159.56.46.56.352 0 .67-.262 1.042-1.225l.67.245c-.46 1.505-1.202 2.013-2.12 2.013-1.041 0-1.59-.613-1.59-1.54M119.383 2.275h1.943l-2.42 8.26h-.76l1.237-8.26zm-2.402 10.5c0-.63.494-1.156 1.13-1.156.637 0 1.131.526 1.131 1.156 0 .63-.494 1.137-1.13 1.137-.637 0-1.13-.507-1.13-1.137zM6.906 2.257l-.334 1.417h1.272L4.274 8.05 2.827 3.674h1.288l.319-1.417H.336L0 3.674h1.166l2.014 5.53-.76 3.15H.936l-.335 1.417H5.3l.317-1.416h-1.59l.672-2.853 5.034-5.828h1.113l.318-1.417z" fill="#A1A4A8"/></g></svg>