<svg width="19" height="19" viewBox="0 0 19 19" xmlns="http://www.w3.org/2000/svg"><title>AAFE9F88-C1D0-44C6-9000-BDE8F2279840</title><path d="M16.941 5.278a.529.529 0 0 1-.53.528h-2.646a.529.529 0 0 1-.53-.528v-2.64c0-.29.237-.527.53-.527h2.647c.292 0 .53.236.53.528v2.639zm0 11.083a.529.529 0 0 1-.53.528H2.648a.529.529 0 0 1-.53-.528V7.917h1.808a5.793 5.793 0 0 0-.22 1.583c0 3.206 2.608 5.806 5.824 5.806 3.217 0 5.824-2.6 5.824-5.806 0-.549-.077-1.08-.22-1.583h1.808v8.444zM9.53 5.806A3.7 3.7 0 0 1 13.235 9.5a3.7 3.7 0 0 1-3.706 3.694A3.7 3.7 0 0 1 5.824 9.5a3.7 3.7 0 0 1 3.705-3.694zM16.412 0H2.647A2.643 2.643 0 0 0 0 2.639V16.36A2.643 2.643 0 0 0 2.647 19h13.765a2.643 2.643 0 0 0 2.647-2.639V2.64A2.643 2.643 0 0 0 16.412 0z" fill="#DFDFDF" fill-rule="evenodd"/></svg>