<svg width="22" height="22" viewBox="0 0 22 22" xmlns="http://www.w3.org/2000/svg" xmlns:xlink="http://www.w3.org/1999/xlink"><title>0D397233-49FF-4460-884D-03A83C29A619</title><defs><path d="M.095 21.564c.019.057.038.057.038.076.038.057.075.076.094.114l.057.057c.038.037.057.037.076.056.057.057.095.057.114.076.057.02.076.038.076.038.056.019.113.019.17.019h20.503a.768.768 0 0 0 .777-.777V.777A.768.768 0 0 0 21.223 0H.777A.768.768 0 0 0 0 .777v20.408c0 .057.019.133.019.19.038.094.057.151.076.19z" id="a"/><mask id="b" x="0" y="0" width="22" height="22" fill="#fff"><use xlink:href="#a"/></mask></defs><g fill="none" fill-rule="evenodd"><path fill="#51C8C8" d="M8 15.38V6l6.723 4.52v.34z"/><use stroke="#51C8C8" mask="url(#b)" stroke-width="3" stroke-linecap="round" stroke-linejoin="round" xlink:href="#a"/></g></svg>