<svg width="22" height="22" viewBox="0 0 22 22" xmlns="http://www.w3.org/2000/svg"><title>3ECF2ED3-12B7-403B-8537-311AE8DFC80B</title><g transform="translate(-39 -25)" fill="none" fill-rule="evenodd"><circle stroke="#F1645D" cx="50" cy="50" r="50"/><path d="M48.208 28.335a1.778 1.778 0 1 1 3.558 0v1.781h-3.558v-1.78zm9.462 1.781h-4.353v-1.78A3.338 3.338 0 0 0 49.987 25a3.338 3.338 0 0 0-3.33 3.335v1.781h-4.353c-.378 0-.7.266-.757.645l-2.536 15.348a.746.746 0 0 0 .17.626c.152.17.36.265.587.265h20.437a.772.772 0 0 0 .795-.777c0-.095-.019-.17-.038-.246L58.426 30.76a.756.756 0 0 0-.756-.645zm-16.993 15.35l2.29-13.796h3.69v4.34c0 .435.34.776.775.776a.768.768 0 0 0 .776-.777V31.67h3.558v4.34c0 .435.34.776.775.776a.768.768 0 0 0 .776-.777V31.67h3.69l2.29 13.795h-18.62z" fill="#F1645D"/></g></svg>