<svg xmlns="http://www.w3.org/2000/svg" xmlns:xlink="http://www.w3.org/1999/xlink" width="20" height="20" viewBox="0 0 20 20">
    <defs>
        <path id="a" d="M0 19.73V0h19.729v19.73H0z"/>
    </defs>
    <g fill="none" fill-rule="evenodd">
        <mask id="b" fill="#fff">
            <use xlink:href="#a"/>
        </mask>
        <path fill="#DFDFDF" d="M15.222 14.807c-1.242-.02-2.482.014-3.723-.02-.664-1.087-1.445-2.1-2.134-3.172-.413-.558-.782-1.148-1.186-1.713-.045 1.632-.004 3.265-.022 4.896-1.232.004-2.466.006-3.698 0 0-3.292.005-6.583-.003-9.873 1.232.002 2.47-.037 3.7.018C9.321 6.545 10.4 8.215 11.54 9.837c.02-1.638.001-3.28.01-4.92 1.227.007 2.454-.005 3.682.004.031 3.14-.001 6.281.017 9.422 0 .155-.014.31-.027.464M19.558.17c-.124-.144-.32-.177-.5-.167-5.903.004-11.806.002-17.709 0C1.036.01.721-.017.411.024A.548.548 0 0 0 0 .575v18.579c-.02.313.269.584.577.567 6.16.004 12.32.001 18.479.001.335.052.677-.225.665-.57.006-6.029-.002-12.058.004-18.089-.015-.299.07-.657-.168-.894" mask="url(#b)"/>
        <path d="M0 0h20v20H0z" mask="url(#b)"/>
    </g>
</svg>
