<svg width="84" height="21" viewBox="0 0 84 21" xmlns="http://www.w3.org/2000/svg" xmlns:xlink="http://www.w3.org/1999/xlink"><title>42DB9571-3729-48A8-A74B-CF71FAF9983A</title><defs><path id="a" d="M83.834 19.142V3.175h-5.06v15.967h5.06z"/></defs><g transform="translate(0 -3)" fill="none" fill-rule="evenodd"><path d="M0 0h90v24H0z"/><path d="M0 4.789V3.175h3.44v8.136c.923-.96 2.07-1.745 3.441-1.745 1.103 0 1.934.37 2.429 1.003.427.546.652 1.287.652 2.16v4.842h1.507v1.57h-4.88v-1.57h1.44v-4.428c0-.61-.136-1.025-.383-1.33-.292-.35-.742-.524-1.327-.524-1.056 0-2.068.611-2.878 1.418v4.864h1.44v1.57H0v-1.57h1.507V4.79H0zM20.047 14.452c0-1.92-1.258-3.294-3.058-3.294-1.822 0-3.08 1.374-3.08 3.294s1.258 3.272 3.08 3.272c1.8 0 3.058-1.353 3.058-3.272m-8.118 0c0-2.64 1.98-4.886 5.06-4.886 3.081 0 5.06 2.225 5.06 4.886 0 2.617-2.002 4.864-5.06 4.864-3.103 0-5.06-2.225-5.06-4.864M31.636 14.43c0-1.985-1.282-3.228-2.97-3.228-1.1 0-2 .502-2.72 1.2v4.384c.697.502 1.574.894 2.676.894 1.642 0 3.014-1.221 3.014-3.25m-5.87 3.774l-.495.96h-1.26V4.788h-1.529V3.175h3.464v7.721c.764-.74 1.687-1.33 3.104-1.33 2.541 0 4.587 1.985 4.587 4.864 0 2.705-2.024 4.886-4.79 4.886-1.237 0-2.249-.436-3.08-1.112M43.221 14.43c0-1.985-1.282-3.228-2.968-3.228-1.102 0-2.001.502-2.72 1.2v4.384c.696.502 1.573.894 2.675.894 1.643 0 3.013-1.221 3.013-3.25m-5.87 3.774l-.494.96h-1.26V4.788H34.07V3.175h3.463v7.721c.765-.74 1.687-1.33 3.103-1.33 2.542 0 4.589 1.985 4.589 4.864 0 2.705-2.025 4.886-4.791 4.886-1.237 0-2.25-.436-3.081-1.112M48.202 23.483c-1.08 0-1.844-.59-1.844-1.331 0-.676.472-1.07 1.057-1.07.562 0 .922.394 1.057.787.315-.11.63-.35.99-.851.18-.284.381-.633.607-1.07l.652-1.308-3.576-7.285h-1.26V9.74h4.724v1.549h-1.485s2.542 5.584 2.519 5.584l2.564-5.584h-1.552V9.74h4.678v1.615h-1.26l-4.565 9.444a9.56 9.56 0 0 1-.764 1.265c-.72.917-1.553 1.419-2.542 1.419M63.385 4.658a1.38 1.38 0 0 0-.652.414c-.315.415-.495 1.004-.495 1.92V9.74h2.519v1.614h-2.519v6.217h1.89v1.57h-5.309v-1.57h1.507v-6.217H58.64V9.74h1.686V7.341c0-1.592.293-2.64 1.125-3.425.607-.589 1.394-.916 2.406-.916 1.125 0 1.934.546 1.934 1.396 0 .72-.516 1.156-1.124 1.156-.675 0-1.08-.392-1.282-.894M68.107 18.073c-.292-.523-.45-1.156-.45-1.92v-4.798h-1.506V9.74h3.417v6c0 .479.09.85.248 1.133.27.502.72.72 1.417.72 1.058 0 2.047-.633 2.901-1.418v-4.82h-1.551V9.74h3.485v7.831h1.507v1.57h-3.373v-1.635c-.922.96-2.137 1.81-3.531 1.81-1.237 0-2.069-.48-2.564-1.243" fill="#F1655D"/><mask id="b" fill="#fff"><use xlink:href="#a"/></mask><path fill="#F1655D" mask="url(#b)" d="M78.773 17.571h1.575V4.79h-1.575V3.175h3.51v14.396h1.55v1.57h-5.06z"/></g></svg>